#!OML:ASF E:/inclinewalkrobotboard/Project1/Captureday1/Session1/subject1.ASF
:FULLY-SPECIFIED
:DEGREES
63
root 0 0 0 -1.1364526259318886 -2.8602156581668514 -0.8443205384723489
lowerback 10.96119938492094 0.5679972938431305 0.4695843580026959
upperback -1.156023072402956 0.8843498477291707 0.8946688289717222
thorax -7.343015677794189 0.40723155820529766 0.43080872100663087
lowerneck -13.32233776897727 -1.3723985295500383 0.26682547127364836
upperneck 19.049396534557683 -1.3451028835060561 -2.4157296353422595
head 8.197078999713991 -0.7855464886182117 -1.0300944267285836
rclavicle -4.650803147978901E-16 -2.9461236418357505E-16
rhumerus -10.588982659325278 -5.968713109993484 -66.55286204564015
rradius 44.06244820980349
rwrist 12.568699412170426
rhand -23.998359585213258 -7.450112338523201
rfingers 7.125020000000129
rthumb 2.704375302339824 -37.56523586847879
lclavicle -9.8778288774607E-16 -7.939305531900817E-16
lhumerus -11.969543214386693 -4.203553237219655 68.39124453891372
lradius 44.01825363878101
lwrist -5.330233720667552
lhand -33.46395001158396 -11.558623549705771
lfingers 7.125020000000128
lthumb -6.750189877299787 17.505655202080945
rfemur 13.918969815416688 7.729817711353231 37.465674242861326
rtibia 37.60381863359099
rfoot -12.903093476264562 -0.8683666372868775
rtoes 8.373562860149804
lfemur -32.27719946914251 -2.9405794720659237 -10.697160442691484
ltibia 26.984879687153445
lfoot -4.857129617754745 4.63882804052706
ltoes 1.4488153118882199
64
root 0 0 0 -1.1462509175442523 -2.8571905668794004 -0.855211381626786
lowerback 10.956998360993241 0.5665776870839239 0.4717201228750502
upperback -1.1423779572821786 0.8830688568528128 0.9007496075537913
thorax -7.325265579888608 0.4066978848179019 0.4358770279571226
lowerneck -13.351606743370521 -1.3849856723712723 0.24930158897520666
upperneck 19.049741024279538 -1.36490446888621 -2.391739913036435
head 8.202298695645123 -0.7937007272942616 -1.021053686664719
rclavicle -4.613865893761519E-16 -2.7799034466752835E-16
rhumerus -10.907127215023513 -6.181028283746977 -66.74873042443583
rradius 43.76296618300914
rwrist 12.418749844424635
rhand -23.891775415653086 -6.932154979956053
rfingers 7.12502000000013
rthumb 2.81065859433444 -37.05705514687339
lclavicle -9.855264525042404E-16 -7.923636964476572E-16
lhumerus -12.252113521389074 -4.136533124308275 68.59194752014793
lradius 43.79095385389438
lwrist -5.173635592190594
lhand -33.36742292380969 -11.041042254309641
lfingers 7.125020000000129
lthumb -6.6582761418443095 18.02925522581748
rfemur 12.93880249371341 7.232398022627269 36.872702313870725
rtibia 40.44340596418793
rfoot -11.633533903280007 -0.7134942000649165
rtoes 8.855203657409685
lfemur -26.037516798683544 -4.213813980180506 -13.945544734201809
ltibia 17.80748874528353
lfoot -8.860350426577881 6.2630171821709215
ltoes 1.5202994526656486
65
root 0 0 0 -1.1551645142844527 -2.8542267488258033 -0.8649313895846313
lowerback 10.953297610492251 0.565318120746254 0.4740692352011045
upperback -1.1300525607581267 0.8822842459926904 0.9061924407083928
thorax -7.309525333304626 0.4061802083987333 0.44064946003021443
lowerneck -13.377799001368468 -1.3962234827539004 0.23352487330365296
upperneck 19.050328453626562 -1.3827124629036085 -2.3701379900169415
head 8.206992591056608 -0.8010662604269565 -1.012867421772271
rclavicle -4.611458481682394E-16 -2.635203477154657E-16
rhumerus -11.177499235922824 -6.362718089369239 -66.91479483260365
rradius 43.50709471359657
rwrist 12.290887820845642
rhand -23.80089486133894 -6.491985279462618
rfingers 7.125020000000132
rthumb 2.901629140382842 -36.623372970138085
lclavicle -9.84736349630542E-16 -7.922324367920896E-16
lhumerus -12.44587710599571 -4.090881768799574 68.73069951083195
lradius 43.63487422358597
lwrist -5.064916327643356
lhand -33.301081439722125 -10.68269306465515
lfingers 7.12502000000013
lthumb -6.59477875425666 18.39225239176826
rfemur 11.872229429664063 6.82245743571324 36.287026530375186
rtibia 42.64729046558872
rfoot -10.548905652532934 -0.6484795563769108
rtoes 9.214707628283138
lfemur -20.925388158902038 -4.765295251130037 -16.410228613146028
ltibia 13.594169914561746
lfoot -11.052249224585763 6.499411024981834
ltoes 1.23022098207246
66
root 0 0 0 -1.164394296185486 -2.851055746820443 -0.8749901750618259
lowerback 10.949501620577982 0.5640116689960021 0.4767526134936509
upperback -1.1172656036570994 0.8815764268102915 0.9117973804903835
thorax -7.293345626946396 0.40562054980835 0.4456361774727566
lowerneck -13.404743957643435 -1.4078794862548523 0.21727200645590278
upperneck 19.05084409793197 -1.4011872863212316 -2.347807469927703
head 8.21181675835767 -0.8087245790641204 -1.0044160489300888
rclavicle -4.624361891519451E-16 -2.48215609054462E-16
rhumerus -11.460626387548828 -6.5529417068687295 -67.08868749326591
rradius 43.23848139175784
rwrist 12.156889406644218
rhand -23.705658998703314 -6.0294036347857
rfingers 7.1250200000001325
rthumb 2.9975452215026426 -36.16830954301909
lclavicle -9.864557524939735E-16 -7.923117663350889E-16
lhumerus -12.62776435720836 -4.048145182707103 68.8613445828736
lradius 43.487737026322776
lwrist -4.96170134793221
lhand -33.23857483674544 -10.343865057574144
lfingers 7.125020000000131
lthumb -6.534869646603485 18.73365474919742
rfemur 10.328204980761466 6.306279632205864 35.47076074572527
rtibia 45.31180975991249
rfoot -9.158480621080807 -0.6196740000429166
rtoes 9.625001099202615
lfemur -15.412836669770638 -5.167807075874922 -18.97575934971342
ltibia 10.356615654249541
lfoot -12.927620085262069 6.30178109558266
ltoes 0.8203119668791068
67
root 0 0 0 -1.1725653757465988 -2.848155671032219 -0.8839229453370423
lowerback 10.946140415956624 0.5628296930110797 0.47918472539698787
upperback -1.1058678633554098 0.8810118856488641 0.9167629063616259
thorax -7.278998372561201 0.4051056507906652 0.4501216217541503
lowerneck -13.428556846241698 -1.4182423885751139 0.2028498685087326
upperneck 19.051212769813212 -1.4176904751535813 -2.328017368282639
head 8.216066638022886 -0.8155568859411152 -0.9968971236134558
rclavicle -4.640659078834829E-16 -2.3380261401981414E-16
rhumerus -11.72067150678565 -6.727479869947917 -67.24835050124285
rradius 42.991495294149125
rwrist 12.033871394299782
rhand -23.618195938953544 -5.603560450062659
rfingers 7.125020000000133
rthumb 3.0859566113494825 -35.74991841840245
lclavicle -9.894041143945801E-16 -7.9245274479406E-16
lhumerus -12.781358378876773 -4.01210023025578 68.9720939824963
lradius 43.36304113540804
lwrist -4.873690167475573
lhand -33.18553306376752 -10.054954201308023
lfingers 7.125020000000132
lthumb -6.48395799852644 19.02193656559166
rfemur 8.107284741302813 5.63464268464597 34.32255978945994
rtibia 48.650899675773
rfoot -7.337715428134217 -0.6441858502783457
rtoes 10.092606199276156
lfemur -9.911984922164056 -5.44654289585065 -21.432209282243427
ltibia 8.060202503445698
lfoot -14.364544356278639 5.744252005542304
ltoes 0.35073816682630543
68
root 0 0 0 -1.1786879136562094 -2.845882474412949 -0.8906713689441526
lowerback 10.94359370318812 0.5618980787719587 0.48093051091510697
upperback -1.0972120800795064 0.880618623300942 0.9205138805511044
thorax -7.268137445078086 0.4047021050479294 0.4535769212246228
lowerneck -13.446392517407551 -1.4260664240316951 0.1919286566299222
upperneck 19.05137151806329 -1.4302565208524913 -2.3131694628253037
head 8.219243392618894 -0.8207354321803865 -0.991212456644603
rclavicle -4.652218822469441E-16 -2.2154357109068216E-16
rhumerus -11.931460334191858 -6.8687292720617625 -67.37762873397345
rradius 42.79161558710784
rwrist 11.934370738485496
rhand -23.547417364597134 -5.257861636790462
rfingers 7.125020000000134
rthumb 3.157759896485226 -35.411135088293605
lclavicle -9.926717938758688E-16 -7.925669103089816E-16
lhumerus -12.887825128881389 -3.9871633616890785 69.04923945689248
lradius 43.27608461732143
lwrist -4.811860966551616
lhand -33.14848158842647 -9.851813261499213
lfingers 7.125020000000132
lthumb -6.448332408422857 19.221317954958295
rfemur 4.986684224358104 4.759935109255336 32.73715932802105
rtibia 52.83838677571075
rfoot -4.9955082679504175 -0.751678228925897
rtoes 10.60005144259723
lfemur -4.785096827431731 -5.59952200508973 -23.61467029822842
ltibia 6.780554142455646
lfoot -15.279032936636701 4.879017101474519
ltoes -0.13504773315842122
69
root 0 0 0 -1.1823676961662768 -2.8441115846412854 -0.8949633442882907
lowerback 10.941939740884006 0.5611738142006911 0.48154978089939404
upperback -1.0915693487153322 0.8803969275463253 0.9229039687583794
thorax -7.261227332538224 0.40440207375009557 0.45598114767829545
lowerneck -13.457242494380699 -1.430958716501932 0.18494038465660584
upperneck 19.051239853283125 -1.4385076645034096 -2.304246024426894
head 8.221180545911858 -0.8240457495151977 -0.9876455898797336
rclavicle -4.651339679399134E-16 -2.0884321029547532E-16
rhumerus -12.11583628701618 -6.9920355444631275 -67.49010538825029
rradius 42.618853639154594
rwrist 11.848085216347606
rhand -23.486108216588036 -4.956261728097465
rfingers 7.125020000000135
rthumb 3.2203596080972066 -35.11718155007071
lclavicle -9.955205030250056E-16 -7.929565284591674E-16
lhumerus -12.920478216783238 -3.9797735439451314 69.07407205901814
lradius 43.24789653417187
lwrist -4.790784727970053
lhand -33.136239584403484 -9.78194153496805
lfingers 7.1250200000001325
lthumb -6.436525703724705 19.282546722080497
rfemur -1.6299478625964525 3.065549023842454 29.470683187655354
rtibia 60.456409466938325
rfoot -0.7021875071360082 -1.1710139355324358
rtoes 11.243335313916498
lfemur 1.690019879163648 -5.611064562426598 -26.226087157620462
ltibia 6.560182650740376
lfoot -15.824307697314605 3.2460760414691965
ltoes -0.8363733883421096
70
root 0 0 0 -1.180260033568226 -2.84432637477945 -0.8929098234966596
lowerback 10.942577550143334 0.5611907475760959 0.480237936688084
upperback -1.0936893442831483 0.8804687124839752 0.9219190916704211
thorax -7.26418112216551 0.4044635626291694 0.45531254230542473
lowerneck -13.451584853486038 -1.4286550283261659 0.1880367002664845
upperneck 19.050704726188908 -1.4354132880105785 -2.309182187891273
head 8.22019312141426 -0.8225845874858239 -0.9893592950816724
rclavicle -4.646451297522716E-16 -2.0647538623245534E-16
rhumerus -12.136891701803073 -7.006139579161236 -67.50215361844052
rradius 42.600962628530404
rwrist 11.83912527756855
rhand -23.479606698822113 -4.922873639056818
rfingers 7.125020000000135
rthumb 3.2273710246345537 -35.08676630516082
lclavicle -9.936982221515508E-16 -7.942775265255776E-16
lhumerus -12.833052932642623 -4.0007524677796225 69.01248237706076
lradius 43.317029673998135
lwrist -4.837911903743341
lhand -33.16535533629553 -9.936374238032935
lfingers 7.125020000000132
lthumb -6.464648264772916 19.12101454126894
rfemur -7.025204673829661 1.8797412524163846 26.94431467327526
rtibia 65.16549073387046
rfoot 2.040040896417036 -1.7140028547688981
rtoes 11.32179624864223
lfemur 5.057177043677244 -5.498555299240909 -27.524180317319036
ltibia 7.261514480469664
lfoot -15.833016631220435 2.106651670544121
ltoes -1.2793265521234067
